<?xml version="1.0" encoding="UTF-8" standalone="no"?>
<!-- Created with Inkscape (http://www.inkscape.org/) -->

<svg
   width="116.67283mm"
   height="138.60512mm"
   viewBox="0 0 116.67283 138.60512"
   version="1.1"
   id="svg8"
   inkscape:export-filename="/home/josh/android/fishtank/assets_local/skull.png"
   inkscape:export-xdpi="6.9664884"
   inkscape:export-ydpi="6.9664884"
   inkscape:version="1.2.2 (b0a8486541, 2022-12-01)"
   sodipodi:docname="skull.svg"
   xmlns:inkscape="http://www.inkscape.org/namespaces/inkscape"
   xmlns:sodipodi="http://sodipodi.sourceforge.net/DTD/sodipodi-0.dtd"
   xmlns="http://www.w3.org/2000/svg"
   xmlns:svg="http://www.w3.org/2000/svg"
   xmlns:rdf="http://www.w3.org/1999/02/22-rdf-syntax-ns#"
   xmlns:cc="http://creativecommons.org/ns#"
   xmlns:dc="http://purl.org/dc/elements/1.1/">
  <defs
     id="defs2" />
  <sodipodi:namedview
     id="base"
     pagecolor="#aeaca6"
     bordercolor="#666666"
     borderopacity="1.0"
     inkscape:pageopacity="0"
     inkscape:pageshadow="2"
     inkscape:zoom="1.4"
     inkscape:cx="249.28571"
     inkscape:cy="94.642857"
     inkscape:document-units="mm"
     inkscape:current-layer="layer1"
     showgrid="false"
     inkscape:snap-nodes="false"
     inkscape:window-width="2560"
     inkscape:window-height="1418"
     inkscape:window-x="0"
     inkscape:window-y="22"
     inkscape:window-maximized="0"
     inkscape:showpageshadow="0"
     inkscape:pagecheckerboard="0"
     inkscape:deskcolor="#aeaca6" />
  <metadata
     id="metadata5">
    <rdf:RDF>
      <cc:Work
         rdf:about="">
        <dc:format>image/svg+xml</dc:format>
        <dc:type
           rdf:resource="http://purl.org/dc/dcmitype/StillImage" />
      </cc:Work>
    </rdf:RDF>
  </metadata>
  <g
     inkscape:label="Layer 1"
     inkscape:groupmode="layer"
     id="layer1"
     transform="translate(-70.863695,-83.058426)">
    <path
       style="fill:#a4a45d;fill-opacity:1;stroke:#000000;stroke-width:1.267;stroke-linecap:butt;stroke-linejoin:miter;stroke-miterlimit:4;stroke-dasharray:none;stroke-opacity:1"
       d="m 110.07077,210.50472 c -1.14431,-1.32996 -2.97521,-1.40817 -3.05149,-1.25172 -1.37318,0.15647 -3.05149,1.09526 -3.05149,1.09526 0,0 -0.99173,4.77217 -0.45772,5.63274 0,0 1.67832,0.93877 2.9752,0.93877 0,0 2.59377,0.0783 3.5855,-0.46939 0,0 0.76287,-3.1293 0,-5.94566 z"
       id="path4495"
       inkscape:connector-curvature="0" />
    <path
       inkscape:connector-curvature="0"
       id="path4497"
       d="m 119.71364,211.67278 c -1.4476,-1.60594 -3.76377,-1.70038 -3.86027,-1.51147 -1.73713,0.18894 -3.86027,1.32254 -3.86027,1.32254 0,0 -1.25459,5.76242 -0.57904,6.80157 0,0 2.12315,1.13357 3.76377,1.13357 0,0 3.28123,0.0945 4.53581,-0.56679 0,0 0.96507,-3.77865 0,-7.17942 z"
       style="fill:#9b9b14;fill-opacity:1;stroke:#000000;stroke-width:1.267;stroke-linecap:butt;stroke-linejoin:miter;stroke-miterlimit:4;stroke-dasharray:none;stroke-opacity:1" />
    <path
       style="fill:#a6aa72;fill-opacity:1;stroke:#000000;stroke-width:1.267;stroke-linecap:butt;stroke-linejoin:miter;stroke-miterlimit:4;stroke-dasharray:none;stroke-opacity:1"
       d="m 128.69057,213.27918 c -1.4476,-1.60594 -3.76377,-1.70038 -3.86027,-1.51147 -1.73713,0.18894 -3.86027,1.32254 -3.86027,1.32254 0,0 -1.25459,5.76242 -0.57904,6.80157 0,0 2.12315,1.13357 3.76377,1.13357 0,0 3.28123,0.0945 4.53581,-0.56679 0,0 0.96507,-3.77865 0,-7.17942 z"
       id="path4499"
       inkscape:connector-curvature="0" />
    <path
       inkscape:connector-curvature="0"
       id="path4501"
       d="m 137.26426,212.62856 c -1.7339,-1.45373 -4.11202,-1.32334 -4.18025,-1.12652 -1.742,0.35559 -3.72665,1.68606 -3.72665,1.68606 0,0 -0.35772,5.84024 0.4978,6.80617 0,0 2.34751,0.91956 4.02131,0.76082 0,0 3.3627,-0.22371 4.53682,-1.00139 0,0 0.37983,-3.84346 -1.14903,-7.12514 z"
       style="fill:#aeae31;fill-opacity:1;stroke:#000000;stroke-width:1.267;stroke-linecap:butt;stroke-linejoin:miter;stroke-miterlimit:4;stroke-dasharray:none;stroke-opacity:1" />
    <path
       style="fill:#969745;fill-opacity:1;stroke:#000000;stroke-width:1.267;stroke-linecap:butt;stroke-linejoin:miter;stroke-miterlimit:4;stroke-dasharray:none;stroke-opacity:1"
       d="m 145.38354,211.68362 c -1.5206,-1.45373 -3.60616,-1.32334 -3.666,-1.12652 -1.52771,0.35559 -3.26821,1.68606 -3.26821,1.68606 0,0 -0.31371,5.84024 0.43657,6.80617 0,0 2.05872,0.91956 3.52661,0.76082 0,0 2.94902,-0.22371 3.9787,-1.00139 0,0 0.33311,-3.84346 -1.00767,-7.12514 z"
       id="path4503"
       inkscape:connector-curvature="0" />
    <path
       inkscape:connector-curvature="0"
       id="path4505"
       d="m 154.64663,210.97188 c -1.49712,-1.24684 -3.5505,-1.13501 -3.60942,-0.9662 -1.50412,0.30499 -3.21775,1.44611 -3.21775,1.44611 0,0 -0.30888,5.00909 0.42982,5.83755 0,0 2.02695,0.7887 3.47217,0.65255 0,0 2.90351,-0.19188 3.9173,-0.85888 0,0 0.32797,-3.29648 -0.99212,-6.11113 z"
       style="fill:#ba9019;fill-opacity:1;stroke:#000000;stroke-width:1.267;stroke-linecap:butt;stroke-linejoin:miter;stroke-miterlimit:4;stroke-dasharray:none;stroke-opacity:1" />
    <path
       inkscape:connector-curvature="0"
       id="path4493"
       d="m 182.04444,171.11605 c 0,0 11.35583,10.42351 -1.0094,18.70887 l -5.23696,2.38118 c 0,0 -6.95914,-1.98437 -4.19333,6.70908 0,0 -6.65277,0.75595 -9.32937,5.48065 0,0 -4.92618,2.38945 -6.38876,7.33684 0,0 -6.14321,-2.39708 -9.4238,0.54289 0,0 -5.55176,-3.4745 -10.00766,0.63476 -3.88806,-2.30519 -7.42099,0.43432 -7.42099,0.43432 -1.70336,-2.13816 -7.2551,-0.53454 -7.2551,-0.53454 -4.28999,-4.00904 -9.84172,-0.53454 -9.84172,-0.53454 -3.28057,-2.93997 -9.56006,-1.00701 -9.56006,-1.00701 -0.79,-6.52182 -4.87545,-9.14057 -4.87545,-9.14057 -3.211911,-3.02381 -10.706371,-3.2128 -10.706371,-3.2128 2.765812,-8.69345 -4.19333,-6.70908 -4.19333,-6.70908 l -5.236956,-2.38118 c -12.36523,-8.28536 -1.009406,-18.70887 -1.009406,-18.70887 l -1.961856,-0.0294 c 0,0 -12.223108,-76.303953 39.970449,-86.225828 14.81048,-2.456844 30.05948,0.09449 30.05948,0.09449 52.10451,9.827382 39.97062,86.178578 39.97062,86.178578 l -2.35003,-0.0178"
       style="fill:#959595;fill-opacity:1;stroke:#000000;stroke-width:1.465;stroke-linecap:butt;stroke-linejoin:miter;stroke-miterlimit:4;stroke-dasharray:none;stroke-opacity:1"
       sodipodi:nodetypes="cccccccccccccccccccccc" />
    <path
       style="fill:#686966;fill-opacity:1;stroke:#000000;stroke-width:1.465;stroke-linecap:butt;stroke-linejoin:miter;stroke-miterlimit:4;stroke-dasharray:none;stroke-opacity:1"
       d="m 93.496225,144.64223 c 0,0 13.660795,-4.55811 25.397755,-2.40273 0,0 9.66245,9.63752 5.81476,23.06454 0,0 -13.38789,12.4713 -34.253862,4.16047 0,0 -2.249846,-16.43792 3.041347,-24.82228 z"
       id="path4509"
       inkscape:connector-curvature="0" />
    <path
       inkscape:connector-curvature="0"
       id="path4511"
       d="m 167.0658,146.78037 c 0,0 -13.6608,-4.55811 -25.39779,-2.40273 0,0 -9.6625,9.63752 -5.81479,23.06454 0,0 13.38795,12.4713 34.25392,4.16047 0,0 2.24985,-16.43792 -3.04134,-24.82228 z"
       style="fill:#686966;fill-opacity:1;stroke:#000000;stroke-width:1.465;stroke-linecap:butt;stroke-linejoin:miter;stroke-miterlimit:4;stroke-dasharray:none;stroke-opacity:1" />
    <path
       style="fill:#5f5f61;fill-opacity:1;stroke:#000000;stroke-width:1.265;stroke-linecap:butt;stroke-linejoin:miter;stroke-miterlimit:4;stroke-dasharray:none;stroke-opacity:1"
       d="m 132.63721,171.01996 c 0,0 0.18899,5.29167 3.2128,6.23661 0,0 2.26786,-0.18899 2.83482,6.80357 0,0 0.56697,10.58333 -3.0238,12.47322 0,0 -4.9137,2.26785 -11.71727,0.37797 0,0 -3.02381,-7.37053 -0.37797,-17.19791 0,0 3.02381,-1.13393 2.26785,-3.77977 0,0 2.64584,-0.94494 1.51191,-5.29166 0,0 3.96874,-0.94495 5.29166,0.37797 z"
       id="path4513"
       inkscape:connector-curvature="0" />
    <path
       style="fill:none;stroke:#000000;stroke-width:1.665;stroke-linecap:butt;stroke-linejoin:miter;stroke-miterlimit:4;stroke-dasharray:none;stroke-opacity:1"
       d="m 86.556548,137.49405 c 0,0 1.133928,25.32441 -11.339287,33.63988"
       id="path4515"
       inkscape:connector-curvature="0" />
    <path
       style="fill:none;stroke:#000000;stroke-width:1.665;stroke-linecap:butt;stroke-linejoin:miter;stroke-miterlimit:4;stroke-dasharray:none;stroke-opacity:1"
       d="m 183.69643,171.88988 c 0,0 -11.33928,-5.29166 -12.85119,-35.52976"
       id="path4517"
       inkscape:connector-curvature="0" />
  </g>
</svg>
